<svg viewBox="0 0 20 20" fill="none" xmlns="http://www.w3.org/2000/svg">
<path fill-rule="evenodd" clip-rule="evenodd" d="M7.5 0.833374C6.5795 0.833374 5.83333 1.57957 5.83333 2.50004H4.16667C3.0621 2.50004 2.16667 3.39547 2.16667 4.50004V17.1667C2.16667 18.2713 3.0621 19.1667 4.16667 19.1667H15.8333C16.9379 19.1667 17.8333 18.2713 17.8333 17.1667V4.50004C17.8333 3.39547 16.9379 2.50004 15.8333 2.50004H14.1667C14.1667 1.57957 13.4205 0.833374 12.5 0.833374H7.5ZM14.1667 4.16671C14.1667 5.08718 13.4205 5.83337 12.5 5.83337H7.5C6.5795 5.83337 5.83333 5.08718 5.83333 4.16671H4.16667C3.98257 4.16671 3.83333 4.31594 3.83333 4.50004V17.1667C3.83333 17.3508 3.98257 17.5 4.16667 17.5H15.8333C16.0174 17.5 16.1667 17.3508 16.1667 17.1667V4.50004C16.1667 4.31594 16.0174 4.16671 15.8333 4.16671H14.1667ZM7.5 2.50004H12.5V4.16671H7.5V2.50004Z"/>
</svg>
