<svg viewBox="0 0 20 20" fill="none" xmlns="http://www.w3.org/2000/svg">
<path fill-rule="evenodd" clip-rule="evenodd" d="M5 1.66663C3.15905 1.66663 1.66667 3.15901 1.66667 4.99996C1.66667 6.84091 3.15905 8.33329 5 8.33329C5.59056 8.33329 6.14535 8.18 6.62729 7.91107L8.40521 9.99996L6.62729 12.0888C6.14535 11.8199 5.59056 11.6666 5 11.6666C3.15905 11.6666 1.66667 13.159 1.66667 15C1.66667 16.8409 3.15905 18.3333 5 18.3333C6.84095 18.3333 8.33334 16.8409 8.33334 15C8.33334 14.5037 8.22489 14.0327 8.03052 13.6094L9.99334 11.3026L15.4151 17.6757C15.7129 18.0257 16.2381 18.0684 16.5882 17.7707C16.9382 17.473 16.9809 16.9478 16.6832 16.5977L11.6604 10.6936L16.6832 4.78953C16.9809 4.43947 16.9382 3.91426 16.5882 3.61655C16.2381 3.31884 15.7129 3.36154 15.4151 3.7116L9.99334 10.0847L8.03052 7.77787C8.22489 7.35456 8.33334 6.88357 8.33334 6.38329V4.99996C8.33334 3.15901 6.84095 1.66663 5 1.66663ZM3.33334 4.99996C3.33334 4.07948 4.07953 3.33329 5 3.33329C5.92048 3.33329 6.66667 4.07948 6.66667 4.99996C6.66667 5.92044 5.92048 6.66663 5 6.66663C4.07953 6.66663 3.33334 5.92044 3.33334 4.99996ZM5 13.3333C4.07953 13.3333 3.33334 14.0795 3.33334 15C3.33334 15.9204 4.07953 16.6666 5 16.6666C5.92048 16.6666 6.66667 15.9204 6.66667 15C6.66667 14.0795 5.92048 13.3333 5 13.3333Z"/>
</svg>
